  0
SECTION
  2
HEADER
  9
$ACADVER
  1
AC1009
  9
$DWGCODEPAGE
  3
ANSI_1252
  9
$INSBASE
 10
0.0
 20
0.0
 30
0.0
  9
$EXTMIN
 10
1e+20
 20
1e+20
 30
1e+20
  9
$EXTMAX
 10
-1e+20
 20
-1e+20
 30
-1e+20
  9
$LIMMIN
 10
0.0
 20
0.0
  9
$LIMMAX
 10
420.0
 20
297.0
  9
$ORTHOMODE
 70
0
  9
$REGENMODE
 70
1
  9
$FILLMODE
 70
1
  9
$DRAGMODE
 70
2
  9
$QTEXTMODE
 70
0
  9
$MIRRTEXT
 70
1
  9
$OSMODE
 70
20583
  9
$LTSCALE
 40
1.0
  9
$ATTMODE
 70
1
  9
$TEXTSIZE
 40
2.5
  9
$TRACEWID
 40
1.0
  9
$TEXTSTYLE
  7
Standard
  9
$CLAYER
  8
0
  9
$CELTYPE
  6
ByLayer
  9
$CECOLOR
 62
256
  9
$DIMSCALE
 40
1.0
  9
$DIMASZ
 40
2.5
  9
$DIMEXO
 40
0.625
  9
$DIMDLI
 40
3.75
  9
$DIMRND
 40
0.0
  9
$DIMDLE
 40
0.0
  9
$DIMEXE
 40
1.25
  9
$DIMTP
 40
0.0
  9
$DIMTM
 40
0.0
  9
$DIMTXT
 40
2.5
  9
$DIMCEN
 40
2.5
  9
$DIMTSZ
 40
0.0
  9
$DIMTOL
 70
0
  9
$DIMLIM
 70
0
  9
$DIMTIH
 70
0
  9
$DIMTOH
 70
0
  9
$DIMSE1
 70
0
  9
$DIMSE2
 70
0
  9
$DIMTAD
 70
1
  9
$DIMZIN
 70
8
  9
$DIMBLK
  1

  9
$DIMASO
 70
1
  9
$DIMSHO
 70
1
  9
$DIMPOST
  1

  9
$DIMAPOST
  1

  9
$DIMALT
 70
0
  9
$DIMALTD
 70
3
  9
$DIMALTF
 40
0.03937007874
  9
$DIMLFAC
 40
1.0
  9
$DIMTOFL
 70
1
  9
$DIMTVP
 40
0.0
  9
$DIMTIX
 70
0
  9
$DIMSOXD
 70
0
  9
$DIMSAH
 70
0
  9
$DIMBLK1
  1

  9
$DIMBLK2
  1

  9
$DIMSTYLE
  2
ISO-25
  9
$DIMCLRD
 70
0
  9
$DIMCLRE
 70
0
  9
$DIMCLRT
 70
0
  9
$DIMTFAC
 40
1.0
  9
$DIMGAP
 40
0.625
  9
$COORDS
 70
1
  9
$ATTDIA
 70
0
  9
$ATTREQ
 70
1
  9
$HANDLING
 70
1
  9
$LUNITS
 70
2
  9
$LUPREC
 70
4
  9
$SKETCHINC
 40
1.0
  9
$FILLETRAD
 40
10.0
  9
$AUNITS
 70
0
  9
$AUPREC
 70
2
  9
$MENU
  1
.
  9
$ELEVATION
 40
0.0
  9
$PELEVATION
 40
0.0
  9
$THICKNESS
 40
0.0
  9
$LIMCHECK
 70
0
  9
$CHAMFERA
 40
0.0
  9
$CHAMFERB
 40
0.0
  9
$SKPOLY
 70
0
  9
$TDCREATE
 40
2461301.5542129627
  9
$TDUPDATE
 40
2461301.5542129627
  9
$TDINDWG
 40
0.0
  9
$TDUSRTIMER
 40
0.0
  9
$USRTIMER
 70
1
  9
$ANGBASE
 50
0.0
  9
$ANGDIR
 70
0
  9
$PDMODE
 70
0
  9
$PDSIZE
 40
0.0
  9
$PLINEWID
 40
0.0
  9
$SPLFRAME
 70
0
  9
$SPLINETYPE
 70
6
  9
$SPLINESEGS
 70
8
  9
$HANDSEED
  5
13C
  9
$SURFTAB1
 70
6
  9
$SURFTAB2
 70
6
  9
$SURFTYPE
 70
6
  9
$SURFU
 70
6
  9
$SURFV
 70
6
  9
$UCSNAME
  2

  9
$UCSORG
 10
0.0
 20
0.0
 30
0.0
  9
$UCSXDIR
 10
1.0
 20
0.0
 30
0.0
  9
$UCSYDIR
 10
0.0
 20
1.0
 30
0.0
  9
$PUCSNAME
  2

  9
$PUCSORG
 10
0.0
 20
0.0
 30
0.0
  9
$PUCSXDIR
 10
1.0
 20
0.0
 30
0.0
  9
$PUCSYDIR
 10
0.0
 20
1.0
 30
0.0
  9
$USERI1
 70
0
  9
$USERI2
 70
0
  9
$USERI3
 70
0
  9
$USERI4
 70
0
  9
$USERI5
 70
0
  9
$USERR1
 40
0.0
  9
$USERR2
 40
0.0
  9
$USERR3
 40
0.0
  9
$USERR4
 40
0.0
  9
$USERR5
 40
0.0
  9
$WORLDVIEW
 70
1
  9
$SHADEDGE
 70
3
  9
$SHADEDIF
 70
70
  9
$TILEMODE
 70
1
  9
$MAXACTVP
 70
64
  9
$PLIMCHECK
 70
0
  9
$PEXTMIN
 10
1e+20
 20
1e+20
 30
1e+20
  9
$PEXTMAX
 10
-1e+20
 20
-1e+20
 30
-1e+20
  9
$PLIMMIN
 10
0.0
 20
0.0
  9
$PLIMMAX
 10
420.0
 20
297.0
  9
$UNITMODE
 70
0
  9
$VISRETAIN
 70
1
  9
$PLINEGEN
 70
0
  9
$PSLTSCALE
 70
1
  0
ENDSEC
  0
SECTION
  2
TABLES
  0
TABLE
  2
VPORT
 70
1
  0
VPORT
  5
23
  2
*Active
 70
0
 10
0.0
 20
0.0
 11
1.0
 21
1.0
 12
0.0
 22
0.0
 13
0.0
 23
0.0
 14
0.5
 24
0.5
 15
0.5
 25
0.5
 16
0.0
 26
0.0
 36
1.0
 17
0.0
 27
0.0
 37
0.0
 40
1000.0
 41
1.34
 42
50.0
 43
0.0
 44
0.0
 50
0.0
 51
0.0
 71
0
 72
1000
 73
1
 74
3
 75
0
 76
0
 77
0
 78
0
  0
ENDTAB
  0
TABLE
  2
LTYPE
 70
3
  0
LTYPE
  5
24
  2
ByBlock
 70
0
  3

 72
65
 73
0
 40
0.0
  0
LTYPE
  5
25
  2
ByLayer
 70
0
  3

 72
65
 73
0
 40
0.0
  0
LTYPE
  5
26
  2
Continuous
 70
0
  3

 72
65
 73
0
 40
0.0
  0
ENDTAB
  0
TABLE
  2
LAYER
 70
12
  0
LAYER
  5
27
  2
0
 70
0
 62
7
  6
Continuous
  0
LAYER
  5
28
  2
Defpoints
 70
0
 62
7
  6
Continuous
  0
LAYER
  5
2D
  2
ï~ín
 70
0
 62
7
  6
Continuous
  0
LAYER
  5
2E
  2
ãÊâÊäE
 70
0
 62
1
  6
Continuous
  0
LAYER
  5
2F
  2
åöï®
 70
0
 62
5
  6
Continuous
  0
LAYER
  5
30
  2
êÍí 
 70
0
 62
3
  6
Continuous
  0
LAYER
  5
31
  2
ìπòH
 70
0
 62
8
  6
Continuous
  0
LAYER
  5
32
  2
ê°ñ@
 70
0
 62
2
  6
Continuous
  0
LAYER
  5
33
  2
ï∂éö
 70
0
 62
4
  6
Continuous
  0
LAYER
  5
34
  2
éQè∆
 70
0
 62
9
  6
Continuous
  0
LAYER
  5
35
  2
ç∑ï™
 70
0
 62
6
  6
Continuous
  0
LAYER
  5
36
  2
íìé‘
 70
0
 62
30
  6
Continuous
  0
ENDTAB
  0
TABLE
  2
STYLE
 70
1
  0
STYLE
  5
29
  2
Standard
 70
0
 40
0.0
 41
1.0
 50
0.0
 71
0
 42
2.5
  3
txt
  4

  0
ENDTAB
  0
TABLE
  2
VIEW
 70
0
  0
ENDTAB
  0
TABLE
  2
UCS
 70
0
  0
ENDTAB
  0
TABLE
  2
APPID
 70
3
  0
APPID
  5
2A
  2
ACAD
 70
0
  0
APPID
  5
13A
  2
HATCHBACKGROUNDCOLOR
 70
0
  0
APPID
  5
13B
  2
EZDXF
 70
0
  0
ENDTAB
  0
TABLE
  2
DIMSTYLE
 70
1
  0
DIMSTYLE
105
2B
  2
Standard
 70
0
  3

  4

  5

  6

  7

 40
1.0
 41
2.5
 42
0.625
 43
3.75
 44
1.25
 45
0.0
 46
0.0
 47
0.0
 48
0.0
140
2.5
141
2.5
142
0.0
143
0.03937007874
144
1.0
145
0.0
146
1.0
147
0.625
 71
0
 72
0
 73
0
 74
0
 75
0
 76
0
 77
1
 78
8
170
0
171
3
172
1
173
0
174
0
175
0
176
0
177
0
178
0
  0
ENDTAB
  0
ENDSEC
  0
SECTION
  2
BLOCKS
  0
BLOCK
  5
18
  8
0
  2
$Model_Space
 70
0
 10
0.0
 20
0.0
 30
0.0
  3
$Model_Space
  1

1001
EZDXF
1000
CREATED_BY_EZDXF
1000
1.4.4 @ 2026-09-17T04:18:04.709295+00:00
1000
WRITTEN_BY_EZDXF
1000
1.4.4 @ 2026-09-17T04:18:04.715349+00:00
  0
ENDBLK
  5
19
  8
0
  0
BLOCK
  5
1C
  8
0
  2
$Paper_Space
 70
0
 10
0.0
 20
0.0
 30
0.0
  3
$Paper_Space
  1

  0
ENDBLK
  5
1D
  8
0
  0
BLOCK
  5
48
  8
0
  2
*D1
 70
1
 10
0.0
 20
0.0
 30
0.0
  3
*D1
  1

  0
LINE
  5
4A
  8
0
 10
10127.0
 20
86303.0
 30
0.0
 11
10127.0
 21
86303.0
 31
0.0
  0
LINE
  5
4B
  8
0
 10
10127.0
 20
92803.0
 30
0.0
 11
10127.0
 21
92803.0
 31
0.0
  0
INSERT
  5
50
  8
ê°ñ@
  2
_CLOSEDFILLED
 10
10127.0
 20
86303.0
 30
0.0
 41
0.25
 42
0.25
 50
270.0
  0
INSERT
  5
52
  8
ê°ñ@
  2
_CLOSEDFILLED
 10
10127.0
 20
92803.0
 30
0.0
 41
0.25
 42
0.25
 50
90.0
  0
LINE
  5
54
  8
0
 10
10127.0
 20
86303.25
 30
0.0
 11
10127.0
 21
88553.0
 31
0.0
  0
LINE
  5
55
  8
0
 10
10127.0
 20
90553.0
 30
0.0
 11
10127.0
 21
92802.75
 31
0.0
  0
TEXT
  5
56
  8
ê°ñ@
 10
10127.0
 20
89553.0
 30
0.0
 40
400.0
  1
6,500
 50
90.0
 72
1
 11
10127.0
 21
89553.0
 31
0.0
 73
2
  0
POINT
  5
57
  8
Defpoints
 10
10127.0
 20
86303.0
 30
0.0
  0
POINT
  5
58
  8
Defpoints
 10
10127.0
 20
86303.0
 30
0.0
  0
POINT
  5
59
  8
Defpoints
 10
10127.0
 20
92803.0
 30
0.0
  0
ENDBLK
  5
49
  8
0
  0
BLOCK
  5
4D
  8
0
  2
_CLOSEDFILLED
 70
0
 10
0.0
 20
0.0
 30
0.0
  3
_CLOSEDFILLED
  1

  0
SOLID
  5
4F
  8
0
  6
BYBLOCK
 62
0
 10
-1.0
 20
0.16439898372402537
 30
0.0
 11
0.0
 21
0.0
 31
0.0
 12
-1.0
 22
-0.16439898372402537
 32
0.0
 13
-1.0
 23
-0.16439898372402537
 33
0.0
  0
ENDBLK
  5
4E
  8
0
  0
ENDSEC
  0
SECTION
  2
ENTITIES
  0
POLYLINE
  5
37
  8
ï~ín
 66
1
 10
0.0
 20
0.0
 30
0.0
 70
1
  0
VERTEX
  5
39
  8
ï~ín
 10
0.0
 20
86303.0
 30
0.0
 70
0
  0
VERTEX
  5
3A
  8
ï~ín
 10
10127.0
 20
86303.0
 30
0.0
 70
0
  0
VERTEX
  5
3B
  8
ï~ín
 10
20254.0
 20
86303.0
 30
0.0
 70
0
  0
VERTEX
  5
3C
  8
ï~ín
 10
20254.0
 20
3353.0
 30
0.0
 70
0
  0
VERTEX
  5
3D
  8
ï~ín
 10
0.0
 20
0.0
 30
0.0
 70
0
  0
SEQEND
  5
38
  8
ï~ín
  0
POLYLINE
  5
3E
  8
ìπòH
 66
1
 10
0.0
 20
0.0
 30
0.0
 70
1
  0
VERTEX
  5
40
  8
ìπòH
 10
10127.0
 20
86303.0
 30
0.0
 70
0
  0
VERTEX
  5
41
  8
ìπòH
 10
0.0
 20
86303.0
 30
0.0
 70
0
  0
VERTEX
  5
42
  8
ìπòH
 10
0.0
 20
92803.0
 30
0.0
 70
0
  0
VERTEX
  5
43
  8
ìπòH
 10
20254.0
 20
92803.0
 30
0.0
 70
0
  0
VERTEX
  5
44
  8
ìπòH
 10
20254.0
 20
86303.0
 30
0.0
 70
0
  0
SEQEND
  5
3F
  8
ìπòH
  0
TEXT
  5
45
  8
ê°ñ@
 10
10127.0
 20
89553.0
 30
0.0
 40
400.0
  1
ìπòH 6,500
 72
1
 11
10127.0
 21
89553.0
 31
0.0
 73
2
  0
DIMENSION
  5
46
  8
ê°ñ@
  2
*D1
  3
Standard
 10
10127.0
 20
86303.0
 30
0.0
 11
10127.0
 21
89553.0
 31
0.0
 70
32
  1
6,500
 13
10127.0
 23
86303.0
 33
0.0
 14
10127.0
 24
92803.0
 34
0.0
 15
0.0
 25
0.0
 35
0.0
 16
0.0
 26
0.0
 36
0.0
 50
90.0
1001
ACAD
1000
DSTYLE
1002
{
1070
140
1040
400.0
1002
}
  0
POLYLINE
  5
5A
  8
ìπòH
 66
1
 10
0.0
 20
0.0
 30
0.0
 70
1
  0
VERTEX
  5
5C
  8
ìπòH
 10
8554.0
 20
33953.0
 30
0.0
 70
0
  0
VERTEX
  5
5D
  8
ìπòH
 10
8554.0
 20
38653.0
 30
0.0
 70
0
  0
VERTEX
  5
5E
  8
ìπòH
 10
11554.0
 20
38653.0
 30
0.0
 70
0
  0
VERTEX
  5
5F
  8
ìπòH
 10
13554.0
 20
40653.0
 30
0.0
 70
0
  0
VERTEX
  5
60
  8
ìπòH
 10
13554.0
 20
83303.0
 30
0.0
 70
0
  0
VERTEX
  5
61
  8
ìπòH
 10
10554.0
 20
86303.0
 30
0.0
 70
0
  0
VERTEX
  5
62
  8
ìπòH
 10
13554.0
 20
86303.0
 30
0.0
 70
0
  0
VERTEX
  5
63
  8
ìπòH
 10
20254.0
 20
86303.0
 30
0.0
 70
0
  0
VERTEX
  5
64
  8
ìπòH
 10
20254.0
 20
3353.0
 30
0.0
 70
0
  0
VERTEX
  5
65
  8
ìπòH
 10
13554.0
 20
3353.0
 30
0.0
 70
0
  0
VERTEX
  5
66
  8
ìπòH
 10
13554.0
 20
31953.0
 30
0.0
 70
0
  0
VERTEX
  5
67
  8
ìπòH
 10
11554.0
 20
33953.0
 30
0.0
 70
0
  0
SEQEND
  5
5B
  8
ìπòH
  0
TEXT
  5
68
  8
ê°ñ@
 10
16904.0
 20
62258.0
 30
0.0
 40
400.0
  1
äJî≠ìπòH ïùàı 6,700
 72
1
 11
16904.0
 21
62258.0
 31
0.0
 73
2
  0
TEXT
  5
69
  8
ï∂éö
 10
16904.0
 20
61698.0
 30
0.0
 40
400.0
  1
ìπòHñ êœÅF587.76áu
 72
1
 11
16904.0
 21
61698.0
 31
0.0
 73
2
  0
POLYLINE
  5
6A
  8
ãÊâÊäE
 66
1
 10
0.0
 20
0.0
 30
0.0
 70
1
  0
VERTEX
  5
6C
  8
ãÊâÊäE
 10
0.0
 20
77690.0
 30
0.0
 70
0
  0
VERTEX
  5
6D
  8
ãÊâÊäE
 10
0.0
 20
86303.0
 30
0.0
 70
0
  0
VERTEX
  5
6E
  8
ãÊâÊäE
 10
10127.0
 20
86303.0
 30
0.0
 70
0
  0
VERTEX
  5
6F
  8
ãÊâÊäE
 10
10554.0
 20
86303.0
 30
0.0
 70
0
  0
VERTEX
  5
70
  8
ãÊâÊäE
 10
13554.0
 20
83303.0
 30
0.0
 70
0
  0
VERTEX
  5
71
  8
ãÊâÊäE
 10
13554.0
 20
77690.0
 30
0.0
 70
0
  0
SEQEND
  5
6B
  8
ãÊâÊäE
  0
POLYLINE
  5
72
  8
åöï®
 66
1
 10
0.0
 20
0.0
 30
0.0
 70
1
  0
VERTEX
  5
74
  8
åöï®
 10
800.0
 20
78846.0
 30
0.0
 70
0
  0
VERTEX
  5
75
  8
åöï®
 10
800.0
 20
85146.0
 30
0.0
 70
0
  0
VERTEX
  5
76
  8
åöï®
 10
9300.0
 20
85146.0
 30
0.0
 70
0
  0
VERTEX
  5
77
  8
åöï®
 10
9300.0
 20
81546.0
 30
0.0
 70
0
  0
VERTEX
  5
78
  8
åöï®
 10
8054.0
 20
81546.0
 30
0.0
 70
0
  0
VERTEX
  5
79
  8
åöï®
 10
8054.0
 20
78846.0
 30
0.0
 70
0
  0
SEQEND
  5
73
  8
åöï®
  0
TEXT
  5
7A
  8
ï∂éö
 10
5050.0
 20
82836.0
 30
0.0
 40
600.0
  1
1çÜínÅi2äKåöÅj
 72
1
 11
5050.0
 21
82836.0
 31
0.0
 73
2
  0
TEXT
  5
7B
  8
ï∂éö
 10
5050.0
 20
82136.0
 30
0.0
 40
400.0
  1
ï~ínÅF112.24áu
 72
1
 11
5050.0
 21
82136.0
 31
0.0
 73
2
  0
TEXT
  5
7C
  8
ï∂éö
 10
5050.0
 20
81576.0
 30
0.0
 40
400.0
  1
åöízÅF50.19áu
 72
1
 11
5050.0
 21
81576.0
 31
0.0
 73
2
  0
TEXT
  5
7D
  8
ê°ñ@
 10
5050.0
 20
81016.0
 30
0.0
 40
400.0
  1
8,500Å~6,300
 72
1
 11
5050.0
 21
81016.0
 31
0.0
 73
2
  0
TEXT
  5
7E
  8
ê°ñ@
 10
6777.0
 20
78090.0
 30
0.0
 40
400.0
  1
13,554
 72
1
 11
6777.0
 21
78090.0
 31
0.0
 73
2
  0
TEXT
  5
7F
  8
ê°ñ@
 10
600.0
 20
81996.5
 30
0.0
 40
400.0
  1
8,613
 72
1
 11
600.0
 21
81996.5
 31
0.0
 73
2
  0
POLYLINE
  5
80
  8
ãÊâÊäE
 66
1
 10
0.0
 20
0.0
 30
0.0
 70
1
  0
VERTEX
  5
82
  8
ãÊâÊäE
 10
13554.0
 20
77690.0
 30
0.0
 70
0
  0
VERTEX
  5
83
  8
ãÊâÊäE
 10
13554.0
 20
69410.0
 30
0.0
 70
0
  0
VERTEX
  5
84
  8
ãÊâÊäE
 10
0.0
 20
69410.0
 30
0.0
 70
0
  0
VERTEX
  5
85
  8
ãÊâÊäE
 10
0.0
 20
77690.0
 30
0.0
 70
0
  0
SEQEND
  5
81
  8
ãÊâÊäE
  0
POLYLINE
  5
86
  8
åöï®
 66
1
 10
0.0
 20
0.0
 30
0.0
 70
1
  0
VERTEX
  5
88
  8
åöï®
 10
800.0
 20
70400.0
 30
0.0
 70
0
  0
VERTEX
  5
89
  8
åöï®
 10
800.0
 20
76700.0
 30
0.0
 70
0
  0
VERTEX
  5
8A
  8
åöï®
 10
9300.0
 20
76700.0
 30
0.0
 70
0
  0
VERTEX
  5
8B
  8
åöï®
 10
9300.0
 20
73100.0
 30
0.0
 70
0
  0
VERTEX
  5
8C
  8
åöï®
 10
8054.0
 20
73100.0
 30
0.0
 70
0
  0
VERTEX
  5
8D
  8
åöï®
 10
8054.0
 20
70400.0
 30
0.0
 70
0
  0
SEQEND
  5
87
  8
åöï®
  0
TEXT
  5
8E
  8
ï∂éö
 10
5050.0
 20
74390.0
 30
0.0
 40
600.0
  1
2çÜínÅi2äKåöÅj
 72
1
 11
5050.0
 21
74390.0
 31
0.0
 73
2
  0
TEXT
  5
8F
  8
ï∂éö
 10
5050.0
 20
73690.0
 30
0.0
 40
400.0
  1
ï~ínÅF112.23áu
 72
1
 11
5050.0
 21
73690.0
 31
0.0
 73
2
  0
TEXT
  5
90
  8
ï∂éö
 10
5050.0
 20
73130.0
 30
0.0
 40
400.0
  1
åöízÅF50.19áu
 72
1
 11
5050.0
 21
73130.0
 31
0.0
 73
2
  0
TEXT
  5
91
  8
ê°ñ@
 10
5050.0
 20
72570.0
 30
0.0
 40
400.0
  1
8,500Å~6,300
 72
1
 11
5050.0
 21
72570.0
 31
0.0
 73
2
  0
TEXT
  5
92
  8
ê°ñ@
 10
6777.0
 20
69810.0
 30
0.0
 40
400.0
  1
13,554
 72
1
 11
6777.0
 21
69810.0
 31
0.0
 73
2
  0
TEXT
  5
93
  8
ê°ñ@
 10
600.0
 20
73550.0
 30
0.0
 40
400.0
  1
8,280
 72
1
 11
600.0
 21
73550.0
 31
0.0
 73
2
  0
POLYLINE
  5
94
  8
ãÊâÊäE
 66
1
 10
0.0
 20
0.0
 30
0.0
 70
1
  0
VERTEX
  5
96
  8
ãÊâÊäE
 10
13554.0
 20
69410.0
 30
0.0
 70
0
  0
VERTEX
  5
97
  8
ãÊâÊäE
 10
13554.0
 20
61130.0
 30
0.0
 70
0
  0
VERTEX
  5
98
  8
ãÊâÊäE
 10
0.0
 20
61130.0
 30
0.0
 70
0
  0
VERTEX
  5
99
  8
ãÊâÊäE
 10
0.0
 20
69410.0
 30
0.0
 70
0
  0
SEQEND
  5
95
  8
ãÊâÊäE
  0
POLYLINE
  5
9A
  8
åöï®
 66
1
 10
0.0
 20
0.0
 30
0.0
 70
1
  0
VERTEX
  5
9C
  8
åöï®
 10
800.0
 20
62120.0
 30
0.0
 70
0
  0
VERTEX
  5
9D
  8
åöï®
 10
800.0
 20
68420.0
 30
0.0
 70
0
  0
VERTEX
  5
9E
  8
åöï®
 10
9300.0
 20
68420.0
 30
0.0
 70
0
  0
VERTEX
  5
9F
  8
åöï®
 10
9300.0
 20
64820.0
 30
0.0
 70
0
  0
VERTEX
  5
A0
  8
åöï®
 10
8054.0
 20
64820.0
 30
0.0
 70
0
  0
VERTEX
  5
A1
  8
åöï®
 10
8054.0
 20
62120.0
 30
0.0
 70
0
  0
SEQEND
  5
9B
  8
åöï®
  0
TEXT
  5
A2
  8
ï∂éö
 10
5050.0
 20
66110.0
 30
0.0
 40
600.0
  1
3çÜínÅi2äKåöÅj
 72
1
 11
5050.0
 21
66110.0
 31
0.0
 73
2
  0
TEXT
  5
A3
  8
ï∂éö
 10
5050.0
 20
65410.0
 30
0.0
 40
400.0
  1
ï~ínÅF112.23áu
 72
1
 11
5050.0
 21
65410.0
 31
0.0
 73
2
  0
TEXT
  5
A4
  8
ï∂éö
 10
5050.0
 20
64850.0
 30
0.0
 40
400.0
  1
åöízÅF50.19áu
 72
1
 11
5050.0
 21
64850.0
 31
0.0
 73
2
  0
TEXT
  5
A5
  8
ê°ñ@
 10
5050.0
 20
64290.0
 30
0.0
 40
400.0
  1
8,500Å~6,300
 72
1
 11
5050.0
 21
64290.0
 31
0.0
 73
2
  0
TEXT
  5
A6
  8
ê°ñ@
 10
6777.0
 20
61530.0
 30
0.0
 40
400.0
  1
13,554
 72
1
 11
6777.0
 21
61530.0
 31
0.0
 73
2
  0
TEXT
  5
A7
  8
ê°ñ@
 10
600.0
 20
65270.0
 30
0.0
 40
400.0
  1
8,280
 72
1
 11
600.0
 21
65270.0
 31
0.0
 73
2
  0
POLYLINE
  5
A8
  8
ãÊâÊäE
 66
1
 10
0.0
 20
0.0
 30
0.0
 70
1
  0
VERTEX
  5
AA
  8
ãÊâÊäE
 10
13554.0
 20
61130.0
 30
0.0
 70
0
  0
VERTEX
  5
AB
  8
ãÊâÊäE
 10
13554.0
 20
52840.0
 30
0.0
 70
0
  0
VERTEX
  5
AC
  8
ãÊâÊäE
 10
0.0
 20
52840.0
 30
0.0
 70
0
  0
VERTEX
  5
AD
  8
ãÊâÊäE
 10
0.0
 20
61130.0
 30
0.0
 70
0
  0
SEQEND
  5
A9
  8
ãÊâÊäE
  0
POLYLINE
  5
AE
  8
åöï®
 66
1
 10
0.0
 20
0.0
 30
0.0
 70
1
  0
VERTEX
  5
B0
  8
åöï®
 10
800.0
 20
53835.0
 30
0.0
 70
0
  0
VERTEX
  5
B1
  8
åöï®
 10
800.0
 20
60135.0
 30
0.0
 70
0
  0
VERTEX
  5
B2
  8
åöï®
 10
9300.0
 20
60135.0
 30
0.0
 70
0
  0
VERTEX
  5
B3
  8
åöï®
 10
9300.0
 20
56535.0
 30
0.0
 70
0
  0
VERTEX
  5
B4
  8
åöï®
 10
8054.0
 20
56535.0
 30
0.0
 70
0
  0
VERTEX
  5
B5
  8
åöï®
 10
8054.0
 20
53835.0
 30
0.0
 70
0
  0
SEQEND
  5
AF
  8
åöï®
  0
TEXT
  5
B6
  8
ï∂éö
 10
5050.0
 20
57825.0
 30
0.0
 40
600.0
  1
4çÜínÅi2äKåöÅj
 72
1
 11
5050.0
 21
57825.0
 31
0.0
 73
2
  0
TEXT
  5
B7
  8
ï∂éö
 10
5050.0
 20
57125.0
 30
0.0
 40
400.0
  1
ï~ínÅF112.36áu
 72
1
 11
5050.0
 21
57125.0
 31
0.0
 73
2
  0
TEXT
  5
B8
  8
ï∂éö
 10
5050.0
 20
56565.0
 30
0.0
 40
400.0
  1
åöízÅF50.19áu
 72
1
 11
5050.0
 21
56565.0
 31
0.0
 73
2
  0
TEXT
  5
B9
  8
ê°ñ@
 10
5050.0
 20
56005.0
 30
0.0
 40
400.0
  1
8,500Å~6,300
 72
1
 11
5050.0
 21
56005.0
 31
0.0
 73
2
  0
TEXT
  5
BA
  8
ê°ñ@
 10
6777.0
 20
53240.0
 30
0.0
 40
400.0
  1
13,554
 72
1
 11
6777.0
 21
53240.0
 31
0.0
 73
2
  0
TEXT
  5
BB
  8
ê°ñ@
 10
600.0
 20
56985.0
 30
0.0
 40
400.0
  1
8,290
 72
1
 11
600.0
 21
56985.0
 31
0.0
 73
2
  0
POLYLINE
  5
BC
  8
ãÊâÊäE
 66
1
 10
0.0
 20
0.0
 30
0.0
 70
1
  0
VERTEX
  5
BE
  8
ãÊâÊäE
 10
13554.0
 20
52840.0
 30
0.0
 70
0
  0
VERTEX
  5
BF
  8
ãÊâÊäE
 10
13554.0
 20
44560.0
 30
0.0
 70
0
  0
VERTEX
  5
C0
  8
ãÊâÊäE
 10
0.0
 20
44560.0
 30
0.0
 70
0
  0
VERTEX
  5
C1
  8
ãÊâÊäE
 10
0.0
 20
52840.0
 30
0.0
 70
0
  0
SEQEND
  5
BD
  8
ãÊâÊäE
  0
POLYLINE
  5
C2
  8
åöï®
 66
1
 10
0.0
 20
0.0
 30
0.0
 70
1
  0
VERTEX
  5
C4
  8
åöï®
 10
800.0
 20
45550.0
 30
0.0
 70
0
  0
VERTEX
  5
C5
  8
åöï®
 10
800.0
 20
51850.0
 30
0.0
 70
0
  0
VERTEX
  5
C6
  8
åöï®
 10
9300.0
 20
51850.0
 30
0.0
 70
0
  0
VERTEX
  5
C7
  8
åöï®
 10
9300.0
 20
48250.0
 30
0.0
 70
0
  0
VERTEX
  5
C8
  8
åöï®
 10
8054.0
 20
48250.0
 30
0.0
 70
0
  0
VERTEX
  5
C9
  8
åöï®
 10
8054.0
 20
45550.0
 30
0.0
 70
0
  0
SEQEND
  5
C3
  8
åöï®
  0
TEXT
  5
CA
  8
ï∂éö
 10
5050.0
 20
49540.0
 30
0.0
 40
600.0
  1
5çÜínÅi2äKåöÅj
 72
1
 11
5050.0
 21
49540.0
 31
0.0
 73
2
  0
TEXT
  5
CB
  8
ï∂éö
 10
5050.0
 20
48840.0
 30
0.0
 40
400.0
  1
ï~ínÅF112.23áu
 72
1
 11
5050.0
 21
48840.0
 31
0.0
 73
2
  0
TEXT
  5
CC
  8
ï∂éö
 10
5050.0
 20
48280.0
 30
0.0
 40
400.0
  1
åöízÅF50.19áu
 72
1
 11
5050.0
 21
48280.0
 31
0.0
 73
2
  0
TEXT
  5
CD
  8
ê°ñ@
 10
5050.0
 20
47720.0
 30
0.0
 40
400.0
  1
8,500Å~6,300
 72
1
 11
5050.0
 21
47720.0
 31
0.0
 73
2
  0
TEXT
  5
CE
  8
ê°ñ@
 10
6777.0
 20
44960.0
 30
0.0
 40
400.0
  1
13,554
 72
1
 11
6777.0
 21
44960.0
 31
0.0
 73
2
  0
TEXT
  5
CF
  8
ê°ñ@
 10
600.0
 20
48700.0
 30
0.0
 40
400.0
  1
8,280
 72
1
 11
600.0
 21
48700.0
 31
0.0
 73
2
  0
POLYLINE
  5
D0
  8
ãÊâÊäE
 66
1
 10
0.0
 20
0.0
 30
0.0
 70
1
  0
VERTEX
  5
D2
  8
ãÊâÊäE
 10
8554.0
 20
38653.0
 30
0.0
 70
0
  0
VERTEX
  5
D3
  8
ãÊâÊäE
 10
8554.0
 20
34660.0
 30
0.0
 70
0
  0
VERTEX
  5
D4
  8
ãÊâÊäE
 10
0.0
 20
34660.0
 30
0.0
 70
0
  0
VERTEX
  5
D5
  8
ãÊâÊäE
 10
0.0
 20
44560.0
 30
0.0
 70
0
  0
VERTEX
  5
D6
  8
ãÊâÊäE
 10
13554.0
 20
44560.0
 30
0.0
 70
0
  0
VERTEX
  5
D7
  8
ãÊâÊäE
 10
13554.0
 20
40653.0
 30
0.0
 70
0
  0
VERTEX
  5
D8
  8
ãÊâÊäE
 10
11554.0
 20
38653.0
 30
0.0
 70
0
  0
SEQEND
  5
D1
  8
ãÊâÊäE
  0
POLYLINE
  5
D9
  8
åöï®
 66
1
 10
0.0
 20
0.0
 30
0.0
 70
1
  0
VERTEX
  5
DB
  8
åöï®
 10
8054.0
 20
37160.0
 30
0.0
 70
0
  0
VERTEX
  5
DC
  8
åöï®
 10
8054.0
 20
43460.0
 30
0.0
 70
0
  0
VERTEX
  5
DD
  8
åöï®
 10
800.0
 20
43460.0
 30
0.0
 70
0
  0
VERTEX
  5
DE
  8
åöï®
 10
800.0
 20
37160.0
 30
0.0
 70
0
  0
SEQEND
  5
DA
  8
åöï®
  0
TEXT
  5
DF
  8
ï∂éö
 10
4427.0
 20
41150.0
 30
0.0
 40
600.0
  1
6çÜínÅi2äKåöÅj
 72
1
 11
4427.0
 21
41150.0
 31
0.0
 73
2
  0
TEXT
  5
E0
  8
ï∂éö
 10
4427.0
 20
40450.0
 30
0.0
 40
400.0
  1
ï~ínÅF112.22áu
 72
1
 11
4427.0
 21
40450.0
 31
0.0
 73
2
  0
TEXT
  5
E1
  8
ï∂éö
 10
4427.0
 20
39890.0
 30
0.0
 40
400.0
  1
åöízÅF45.70áu
 72
1
 11
4427.0
 21
39890.0
 31
0.0
 73
2
  0
TEXT
  5
E2
  8
ê°ñ@
 10
4427.0
 20
39330.0
 30
0.0
 40
400.0
  1
7,254Å~6,300
 72
1
 11
4427.0
 21
39330.0
 31
0.0
 73
2
  0
TEXT
  5
E3
  8
ê°ñ@
 10
6777.0
 20
35060.0
 30
0.0
 40
400.0
  1
13,554
 72
1
 11
6777.0
 21
35060.0
 31
0.0
 73
2
  0
TEXT
  5
E4
  8
ê°ñ@
 10
600.0
 20
39610.0
 30
0.0
 40
400.0
  1
9,900
 72
1
 11
600.0
 21
39610.0
 31
0.0
 73
2
  0
POLYLINE
  5
E5
  8
ãÊâÊäE
 66
1
 10
0.0
 20
0.0
 30
0.0
 70
1
  0
VERTEX
  5
E7
  8
ãÊâÊäE
 10
0.0
 20
25970.0
 30
0.0
 70
0
  0
VERTEX
  5
E8
  8
ãÊâÊäE
 10
0.0
 20
34660.0
 30
0.0
 70
0
  0
VERTEX
  5
E9
  8
ãÊâÊäE
 10
8554.0
 20
34660.0
 30
0.0
 70
0
  0
VERTEX
  5
EA
  8
ãÊâÊäE
 10
8554.0
 20
33953.0
 30
0.0
 70
0
  0
VERTEX
  5
EB
  8
ãÊâÊäE
 10
11554.0
 20
33953.0
 30
0.0
 70
0
  0
VERTEX
  5
EC
  8
ãÊâÊäE
 10
13554.0
 20
31953.0
 30
0.0
 70
0
  0
VERTEX
  5
ED
  8
ãÊâÊäE
 10
13554.0
 20
25970.0
 30
0.0
 70
0
  0
SEQEND
  5
E6
  8
ãÊâÊäE
  0
POLYLINE
  5
EE
  8
åöï®
 66
1
 10
0.0
 20
0.0
 30
0.0
 70
1
  0
VERTEX
  5
F0
  8
åöï®
 10
800.0
 20
27165.0
 30
0.0
 70
0
  0
VERTEX
  5
F1
  8
åöï®
 10
800.0
 20
33465.0
 30
0.0
 70
0
  0
VERTEX
  5
F2
  8
åöï®
 10
9300.0
 20
33465.0
 30
0.0
 70
0
  0
VERTEX
  5
F3
  8
åöï®
 10
9300.0
 20
29865.0
 30
0.0
 70
0
  0
VERTEX
  5
F4
  8
åöï®
 10
8054.0
 20
29865.0
 30
0.0
 70
0
  0
VERTEX
  5
F5
  8
åöï®
 10
8054.0
 20
27165.0
 30
0.0
 70
0
  0
SEQEND
  5
EF
  8
åöï®
  0
TEXT
  5
F6
  8
ï∂éö
 10
5050.0
 20
31155.0
 30
0.0
 40
600.0
  1
7çÜínÅi2äKåöÅj
 72
1
 11
5050.0
 21
31155.0
 31
0.0
 73
2
  0
TEXT
  5
F7
  8
ï∂éö
 10
5050.0
 20
30455.0
 30
0.0
 40
400.0
  1
ï~ínÅF112.25áu
 72
1
 11
5050.0
 21
30455.0
 31
0.0
 73
2
  0
TEXT
  5
F8
  8
ï∂éö
 10
5050.0
 20
29895.0
 30
0.0
 40
400.0
  1
åöízÅF50.19áu
 72
1
 11
5050.0
 21
29895.0
 31
0.0
 73
2
  0
TEXT
  5
F9
  8
ê°ñ@
 10
5050.0
 20
29335.0
 30
0.0
 40
400.0
  1
8,500Å~6,300
 72
1
 11
5050.0
 21
29335.0
 31
0.0
 73
2
  0
TEXT
  5
FA
  8
ê°ñ@
 10
6777.0
 20
26370.0
 30
0.0
 40
400.0
  1
13,554
 72
1
 11
6777.0
 21
26370.0
 31
0.0
 73
2
  0
TEXT
  5
FB
  8
ê°ñ@
 10
600.0
 20
30315.0
 30
0.0
 40
400.0
  1
8,690
 72
1
 11
600.0
 21
30315.0
 31
0.0
 73
2
  0
POLYLINE
  5
FC
  8
ãÊâÊäE
 66
1
 10
0.0
 20
0.0
 30
0.0
 70
1
  0
VERTEX
  5
FE
  8
ãÊâÊäE
 10
13554.0
 20
25970.0
 30
0.0
 70
0
  0
VERTEX
  5
FF
  8
ãÊâÊäE
 10
13554.0
 20
17690.0
 30
0.0
 70
0
  0
VERTEX
  5
100
  8
ãÊâÊäE
 10
0.0
 20
17690.0
 30
0.0
 70
0
  0
VERTEX
  5
101
  8
ãÊâÊäE
 10
0.0
 20
25970.0
 30
0.0
 70
0
  0
SEQEND
  5
FD
  8
ãÊâÊäE
  0
POLYLINE
  5
102
  8
åöï®
 66
1
 10
0.0
 20
0.0
 30
0.0
 70
1
  0
VERTEX
  5
104
  8
åöï®
 10
800.0
 20
18680.0
 30
0.0
 70
0
  0
VERTEX
  5
105
  8
åöï®
 10
800.0
 20
24980.0
 30
0.0
 70
0
  0
VERTEX
  5
106
  8
åöï®
 10
9300.0
 20
24980.0
 30
0.0
 70
0
  0
VERTEX
  5
107
  8
åöï®
 10
9300.0
 20
21380.0
 30
0.0
 70
0
  0
VERTEX
  5
108
  8
åöï®
 10
8054.0
 20
21380.0
 30
0.0
 70
0
  0
VERTEX
  5
109
  8
åöï®
 10
8054.0
 20
18680.0
 30
0.0
 70
0
  0
SEQEND
  5
103
  8
åöï®
  0
TEXT
  5
10A
  8
ï∂éö
 10
5050.0
 20
22670.0
 30
0.0
 40
600.0
  1
8çÜínÅi2äKåöÅj
 72
1
 11
5050.0
 21
22670.0
 31
0.0
 73
2
  0
TEXT
  5
10B
  8
ï∂éö
 10
5050.0
 20
21970.0
 30
0.0
 40
400.0
  1
ï~ínÅF112.23áu
 72
1
 11
5050.0
 21
21970.0
 31
0.0
 73
2
  0
TEXT
  5
10C
  8
ï∂éö
 10
5050.0
 20
21410.0
 30
0.0
 40
400.0
  1
åöízÅF50.19áu
 72
1
 11
5050.0
 21
21410.0
 31
0.0
 73
2
  0
TEXT
  5
10D
  8
ê°ñ@
 10
5050.0
 20
20850.0
 30
0.0
 40
400.0
  1
8,500Å~6,300
 72
1
 11
5050.0
 21
20850.0
 31
0.0
 73
2
  0
TEXT
  5
10E
  8
ê°ñ@
 10
6777.0
 20
18090.0
 30
0.0
 40
400.0
  1
13,554
 72
1
 11
6777.0
 21
18090.0
 31
0.0
 73
2
  0
TEXT
  5
10F
  8
ê°ñ@
 10
600.0
 20
21830.0
 30
0.0
 40
400.0
  1
8,280
 72
1
 11
600.0
 21
21830.0
 31
0.0
 73
2
  0
POLYLINE
  5
110
  8
ãÊâÊäE
 66
1
 10
0.0
 20
0.0
 30
0.0
 70
1
  0
VERTEX
  5
112
  8
ãÊâÊäE
 10
13554.0
 20
17690.0
 30
0.0
 70
0
  0
VERTEX
  5
113
  8
ãÊâÊäE
 10
13554.0
 20
9400.0
 30
0.0
 70
0
  0
VERTEX
  5
114
  8
ãÊâÊäE
 10
0.0
 20
9400.0
 30
0.0
 70
0
  0
VERTEX
  5
115
  8
ãÊâÊäE
 10
0.0
 20
17690.0
 30
0.0
 70
0
  0
SEQEND
  5
111
  8
ãÊâÊäE
  0
POLYLINE
  5
116
  8
åöï®
 66
1
 10
0.0
 20
0.0
 30
0.0
 70
1
  0
VERTEX
  5
118
  8
åöï®
 10
800.0
 20
10395.0
 30
0.0
 70
0
  0
VERTEX
  5
119
  8
åöï®
 10
800.0
 20
16695.0
 30
0.0
 70
0
  0
VERTEX
  5
11A
  8
åöï®
 10
9300.0
 20
16695.0
 30
0.0
 70
0
  0
VERTEX
  5
11B
  8
åöï®
 10
9300.0
 20
13095.0
 30
0.0
 70
0
  0
VERTEX
  5
11C
  8
åöï®
 10
8054.0
 20
13095.0
 30
0.0
 70
0
  0
VERTEX
  5
11D
  8
åöï®
 10
8054.0
 20
10395.0
 30
0.0
 70
0
  0
SEQEND
  5
117
  8
åöï®
  0
TEXT
  5
11E
  8
ï∂éö
 10
5050.0
 20
14385.0
 30
0.0
 40
600.0
  1
9çÜínÅi2äKåöÅj
 72
1
 11
5050.0
 21
14385.0
 31
0.0
 73
2
  0
TEXT
  5
11F
  8
ï∂éö
 10
5050.0
 20
13685.0
 30
0.0
 40
400.0
  1
ï~ínÅF112.36áu
 72
1
 11
5050.0
 21
13685.0
 31
0.0
 73
2
  0
TEXT
  5
120
  8
ï∂éö
 10
5050.0
 20
13125.0
 30
0.0
 40
400.0
  1
åöízÅF50.19áu
 72
1
 11
5050.0
 21
13125.0
 31
0.0
 73
2
  0
TEXT
  5
121
  8
ê°ñ@
 10
5050.0
 20
12565.0
 30
0.0
 40
400.0
  1
8,500Å~6,300
 72
1
 11
5050.0
 21
12565.0
 31
0.0
 73
2
  0
TEXT
  5
122
  8
ê°ñ@
 10
6777.0
 20
9800.0
 30
0.0
 40
400.0
  1
13,554
 72
1
 11
6777.0
 21
9800.0
 31
0.0
 73
2
  0
TEXT
  5
123
  8
ê°ñ@
 10
600.0
 20
13545.0
 30
0.0
 40
400.0
  1
8,290
 72
1
 11
600.0
 21
13545.0
 31
0.0
 73
2
  0
POLYLINE
  5
124
  8
ãÊâÊäE
 66
1
 10
0.0
 20
0.0
 30
0.0
 70
1
  0
VERTEX
  5
126
  8
ãÊâÊäE
 10
13554.0
 20
3353.0
 30
0.0
 70
0
  0
VERTEX
  5
127
  8
ãÊâÊäE
 10
20254.0
 20
3353.0
 30
0.0
 70
0
  0
VERTEX
  5
128
  8
ãÊâÊäE
 10
13554.0
 20
2244.0
 30
0.0
 70
0
  0
VERTEX
  5
129
  8
ãÊâÊäE
 10
0.0
 20
0.0
 30
0.0
 70
0
  0
VERTEX
  5
12A
  8
ãÊâÊäE
 10
0.0
 20
9400.0
 30
0.0
 70
0
  0
VERTEX
  5
12B
  8
ãÊâÊäE
 10
13554.0
 20
9400.0
 30
0.0
 70
0
  0
SEQEND
  5
125
  8
ãÊâÊäE
  0
POLYLINE
  5
12C
  8
åöï®
 66
1
 10
0.0
 20
0.0
 30
0.0
 70
1
  0
VERTEX
  5
12E
  8
åöï®
 10
12100.0
 20
3122.0
 30
0.0
 70
0
  0
VERTEX
  5
12F
  8
åöï®
 10
800.0
 20
3122.0
 30
0.0
 70
0
  0
VERTEX
  5
130
  8
åöï®
 10
800.0
 20
8522.0
 30
0.0
 70
0
  0
VERTEX
  5
131
  8
åöï®
 10
8054.0
 20
8522.0
 30
0.0
 70
0
  0
VERTEX
  5
132
  8
åöï®
 10
8054.0
 20
5822.0
 30
0.0
 70
0
  0
VERTEX
  5
133
  8
åöï®
 10
12100.0
 20
5822.0
 30
0.0
 70
0
  0
SEQEND
  5
12D
  8
åöï®
  0
TEXT
  5
134
  8
ï∂éö
 10
6450.0
 20
6662.0
 30
0.0
 40
600.0
  1
10çÜínÅi2äKåöÅj
 72
1
 11
6450.0
 21
6662.0
 31
0.0
 73
2
  0
TEXT
  5
135
  8
ï∂éö
 10
6450.0
 20
5962.0
 30
0.0
 40
400.0
  1
ï~ínÅF115.92áu
 72
1
 11
6450.0
 21
5962.0
 31
0.0
 73
2
  0
TEXT
  5
136
  8
ï∂éö
 10
6450.0
 20
5402.0
 30
0.0
 40
400.0
  1
åöízÅF50.10áu
 72
1
 11
6450.0
 21
5402.0
 31
0.0
 73
2
  0
TEXT
  5
137
  8
ê°ñ@
 10
6450.0
 20
4842.0
 30
0.0
 40
400.0
  1
11,300Å~5,400
 72
1
 11
6450.0
 21
4842.0
 31
0.0
 73
2
  0
TEXT
  5
138
  8
ê°ñ@
 10
10127.0
 20
400.0
 30
0.0
 40
400.0
  1
20,254
 72
1
 11
10127.0
 21
400.0
 31
0.0
 73
2
  0
TEXT
  5
139
  8
ê°ñ@
 10
600.0
 20
4700.0
 30
0.0
 40
400.0
  1
9,400
 72
1
 11
600.0
 21
4700.0
 31
0.0
 73
2
  0
ENDSEC
  0
EOF
